<svg width="44" height="62" viewBox="0 0 44 62" fill="none" xmlns="http://www.w3.org/2000/svg">
<g filter="url(#filter0_d_220_10)">
<mask id="path-1-outside-1_220_10" maskUnits="userSpaceOnUse" x="4" y="0" width="36" height="54" fill="black">
<rect fill="white" x="4" width="36" height="54"/>
<path d="M5.74 15.484C5.96667 10.9507 7.55333 7.46 10.5 5.012C13.492 2.51866 17.4133 1.272 22.264 1.272C25.5733 1.272 28.4067 1.86133 30.764 3.04C33.1213 4.17333 34.8893 5.73733 36.068 7.732C37.292 9.68133 37.904 11.9027 37.904 14.396C37.904 17.252 37.156 19.6773 35.66 21.672C34.2093 23.6213 32.464 24.936 30.424 25.616V25.888C33.0533 26.704 35.0933 28.1547 36.544 30.24C38.04 32.3253 38.788 35 38.788 38.264C38.788 40.984 38.1533 43.4093 36.884 45.54C35.66 47.6707 33.824 49.348 31.376 50.572C28.9733 51.7507 26.072 52.34 22.672 52.34C17.5493 52.34 13.3787 51.048 10.16 48.464C6.94133 45.88 5.24133 42.072 5.06 37.04H14.308C14.3987 39.2613 15.1467 41.052 16.552 42.412C18.0027 43.7267 19.9747 44.384 22.468 44.384C24.78 44.384 26.548 43.7493 27.772 42.48C29.0413 41.1653 29.676 39.488 29.676 37.448C29.676 34.728 28.8147 32.7787 27.092 31.6C25.3693 30.4213 22.6947 29.832 19.068 29.832H17.096V22.012H19.068C25.5053 22.012 28.724 19.8587 28.724 15.552C28.724 13.6027 28.1347 12.084 26.956 10.996C25.8227 9.908 24.168 9.364 21.992 9.364C19.8613 9.364 18.2067 9.95333 17.028 11.132C15.8947 12.2653 15.2373 13.716 15.056 15.484H5.74Z"/>
</mask>
<path d="M5.74 15.484L4.74125 15.4341L4.68875 16.484H5.74V15.484ZM10.5 5.012L11.139 5.78119L11.1402 5.78022L10.5 5.012ZM30.764 3.04L30.3168 3.93443L30.3237 3.93789L30.3307 3.94125L30.764 3.04ZM36.068 7.732L35.2071 8.24073L35.2139 8.25234L35.2211 8.26377L36.068 7.732ZM35.66 21.672L34.86 21.072L34.8578 21.075L35.66 21.672ZM30.424 25.616L30.1078 24.6673L29.424 24.8952V25.616H30.424ZM30.424 25.888H29.424V26.6247L30.1276 26.8431L30.424 25.888ZM36.544 30.24L35.7231 30.8111L35.7272 30.817L35.7315 30.8229L36.544 30.24ZM36.884 45.54L36.0249 45.0282L36.0208 45.035L36.0169 45.0419L36.884 45.54ZM31.376 50.572L31.8164 51.4698L31.8232 51.4664L31.376 50.572ZM10.16 48.464L9.53397 49.2438L9.53397 49.2438L10.16 48.464ZM5.06 37.04V36.04H4.02331L4.06065 37.076L5.06 37.04ZM14.308 37.04L15.3072 36.9992L15.268 36.04H14.308V37.04ZM16.552 42.412L15.8566 43.1306L15.8683 43.142L15.8805 43.153L16.552 42.412ZM27.772 42.48L27.0526 41.7854L27.0522 41.7859L27.772 42.48ZM17.096 29.832H16.096V30.832H17.096V29.832ZM17.096 22.012V21.012H16.096V22.012H17.096ZM26.956 10.996L26.2635 11.7174L26.2705 11.7242L26.2777 11.7308L26.956 10.996ZM17.028 11.132L17.7351 11.8391L17.7351 11.8391L17.028 11.132ZM15.056 15.484V16.484H15.9587L16.0508 15.586L15.056 15.484ZM6.73875 15.5339C6.95426 11.2238 8.44746 8.01725 11.139 5.78119L9.86098 4.24281C6.6592 6.90275 4.97908 10.6775 4.74125 15.4341L6.73875 15.5339ZM11.1402 5.78022C13.9117 3.47058 17.5881 2.272 22.264 2.272V0.271996C17.2385 0.271996 13.0723 1.56674 9.85982 4.24378L11.1402 5.78022ZM22.264 2.272C25.4568 2.272 28.1292 2.84064 30.3168 3.93443L31.2112 2.14557C28.6841 0.882018 25.6899 0.271996 22.264 0.271996V2.272ZM30.3307 3.94125C32.5336 5.00032 34.1416 6.43767 35.2071 8.24073L36.9289 7.22327C35.637 5.03699 33.7091 3.34634 31.1973 2.13875L30.3307 3.94125ZM35.2211 8.26377C36.3368 10.0405 36.904 12.0745 36.904 14.396H38.904C38.904 11.7308 38.2472 9.32213 36.9149 7.20023L35.2211 8.26377ZM36.904 14.396C36.904 17.0685 36.2078 19.275 34.86 21.072L36.46 22.272C38.1042 20.0797 38.904 17.4355 38.904 14.396H36.904ZM34.8578 21.075C33.5128 22.8823 31.9289 24.0603 30.1078 24.6673L30.7402 26.5647C32.9991 25.8117 34.9059 24.3604 36.4622 22.269L34.8578 21.075ZM29.424 25.616V25.888H31.424V25.616H29.424ZM30.1276 26.8431C32.5632 27.5989 34.4105 28.9242 35.7231 30.8111L37.3649 29.6689C35.7761 27.3851 33.5435 25.8091 30.7204 24.9329L30.1276 26.8431ZM35.7315 30.8229C37.0761 32.6972 37.788 35.1521 37.788 38.264H39.788C39.788 34.8479 39.004 31.9535 37.3565 29.6571L35.7315 30.8229ZM37.788 38.264C37.788 40.8218 37.1932 43.0671 36.0249 45.0282L37.7431 46.0518C39.1134 43.7516 39.788 41.1462 39.788 38.264H37.788ZM36.0169 45.0419C34.9018 46.983 33.2217 48.5311 30.9288 49.6776L31.8232 51.4664C34.4263 50.1649 36.4182 48.3584 37.7511 46.0381L36.0169 45.0419ZM30.9356 49.6742C28.7019 50.77 25.9594 51.34 22.672 51.34V53.34C26.1846 53.34 29.2447 52.7314 31.8164 51.4698L30.9356 49.6742ZM22.672 51.34C17.7207 51.34 13.7877 50.094 10.786 47.6842L9.53397 49.2438C12.9696 52.002 17.378 53.34 22.672 53.34V51.34ZM10.786 47.6842C7.84318 45.3216 6.23273 41.8152 6.05935 37.004L4.06065 37.076C4.24994 42.3288 6.03949 46.4384 9.53397 49.2438L10.786 47.6842ZM5.06 38.04H14.308V36.04H5.06V38.04ZM13.3088 37.0808C13.4084 39.5208 14.2412 41.5673 15.8566 43.1306L17.2474 41.6934C16.0522 40.5367 15.3889 39.0019 15.3072 36.9992L13.3088 37.0808ZM15.8805 43.153C17.5612 44.6762 19.7967 45.384 22.468 45.384V43.384C20.1527 43.384 18.4441 42.7772 17.2235 41.671L15.8805 43.153ZM22.468 45.384C24.9632 45.384 27.0258 44.6945 28.4918 43.1741L27.0522 41.7859C26.0702 42.8042 24.5968 43.384 22.468 43.384V45.384ZM28.4914 43.1746C29.9623 41.6512 30.676 39.7143 30.676 37.448H28.676C28.676 39.2617 28.1204 40.6795 27.0526 41.7854L28.4914 43.1746ZM30.676 37.448C30.676 34.5092 29.7323 32.1948 27.6567 30.7747L26.5273 32.4253C27.8971 33.3625 28.676 34.9468 28.676 37.448H30.676ZM27.6567 30.7747C25.6849 29.4256 22.7647 28.832 19.068 28.832V30.832C22.6246 30.832 25.0538 31.4171 26.5273 32.4253L27.6567 30.7747ZM19.068 28.832H17.096V30.832H19.068V28.832ZM18.096 29.832V22.012H16.096V29.832H18.096ZM17.096 23.012H19.068V21.012H17.096V23.012ZM19.068 23.012C22.3666 23.012 25.0158 22.466 26.8661 21.2281C28.7875 19.9427 29.724 17.9951 29.724 15.552H27.724C27.724 17.4155 27.0512 18.698 25.754 19.5659C24.3856 20.4813 22.2067 21.012 19.068 21.012V23.012ZM29.724 15.552C29.724 13.3884 29.0613 11.5784 27.6343 10.2612L26.2777 11.7308C27.2081 12.5896 27.724 13.8169 27.724 15.552H29.724ZM27.6485 10.2746C26.2672 8.94852 24.3255 8.364 21.992 8.364V10.364C24.0105 10.364 25.3781 10.8675 26.2635 11.7174L27.6485 10.2746ZM21.992 8.364C19.6735 8.364 17.7355 9.01028 16.3209 10.4249L17.7351 11.8391C18.6778 10.8964 20.0492 10.364 21.992 10.364V8.364ZM16.3209 10.4249C15.0071 11.7387 14.2633 13.4117 14.0612 15.382L16.0508 15.586C16.2114 14.0203 16.7823 12.7919 17.7351 11.8391L16.3209 10.4249ZM15.056 14.484H5.74V16.484H15.056V14.484Z" fill="white" mask="url(#path-1-outside-1_220_10)"/>
</g>
<defs>
<filter id="filter0_d_220_10" x="0.0233154" y="0.271996" width="43.7647" height="61.068" filterUnits="userSpaceOnUse" color-interpolation-filters="sRGB">
<feFlood flood-opacity="0" result="BackgroundImageFix"/>
<feColorMatrix in="SourceAlpha" type="matrix" values="0 0 0 0 0 0 0 0 0 0 0 0 0 0 0 0 0 0 127 0" result="hardAlpha"/>
<feOffset dy="4"/>
<feGaussianBlur stdDeviation="2"/>
<feComposite in2="hardAlpha" operator="out"/>
<feColorMatrix type="matrix" values="0 0 0 0 0 0 0 0 0 0 0 0 0 0 0 0 0 0 0.25 0"/>
<feBlend mode="normal" in2="BackgroundImageFix" result="effect1_dropShadow_220_10"/>
<feBlend mode="normal" in="SourceGraphic" in2="effect1_dropShadow_220_10" result="shape"/>
</filter>
</defs>
</svg>
