<svg xmlns="http://www.w3.org/2000/svg" width="19" height="52" fill="none"><mask id="a" width="19" height="52" x="0" y="0" fill="#000" maskUnits="userSpaceOnUse"><path fill="#fff" d="M0 0h19v52H0z"/><path d="M1.448 10.2V1.428h16.388V51H8.044V10.2z"/></mask><path fill="#fff" d="M1.448 10.2h-1v1h1zm0-8.772v-1h-1v1zm16.388 0h1v-1h-1zm0 49.572v1h1v-1zm-9.792 0h-1v1h1zm0-40.8h1v-1h-1zm-5.596 0V1.428h-2V10.2zm-1-7.772h16.388v-2H1.448zm15.388-1V51h2V1.428zm1 48.572H8.044v2h9.792zm-8.792 1V10.2h-2V51zm-1-41.8H1.448v2h6.596z" mask="url(#a)"/></svg>